# AST/ASF file generated using VICON BodyLanguage
# -----------------------------------------------
:version 1.10
:name VICON
:units
  mass 1.0
  length 0.45
  angle deg
:documentation
   .ast/.asf automatically generated from VICON data using
   VICON BodyBuilder and BodyLanguage model FoxedUp or BRILLIANT.MOD
:root
   order TX TY TZ RX RY RZ
   axis XYZ
   position 0 0 0  
   orientation 0 -0 0 
:bonedata
  begin
     id 1 
     name lhipjoint
     direction 0.515797 -0.759363 0.396637 
     length 2.47888 
     axis 0 -0 0  XYZ
  end
  begin
     id 2 
     name lfemur
     direction 0.34202 -0.939693 0  
     length 6.81885  
     axis 0 -0 20  XYZ
    dof rx ry rz
    limits (-160.0 20.0)
           (-70.0 70.0)
           (-60.0 70.0)
  end
  begin
     id 3 
     name ltibia
     direction 0.342037 -0.939687 0   
     length 7.89258   
     axis 0 -0 20   XYZ
    dof rx
    limits (-10.0 170.0)
  end
  begin
     id 4 
     name lfoot
     direction 0.173497 -0.476678 0.861787   
     length 2.51543   
     axis -90 -1.13533e-015 20   XYZ
    dof rx rz
    limits (-45.0 90.0)
           (-70.0 20.0)
  end
  begin
     id 5 
     name ltoes
     direction 1.53564e-011 -4.21897e-011 1   
     length 1.21388   
     axis -90 -1.13533e-015 20   XYZ
    dof rx
    limits (-90.0 20.0)
  end
  begin
     id 6 
     name rhipjoint
     direction -0.489454 -0.772941 0.403729   
     length 2.43534  
     axis 0 -0 0  XYZ 
  end
  begin
     id 7 
     name rfemur
     direction -0.34202 -0.939693 0   
     length 7.10357   
     axis 0 -0 -20   XYZ
    dof rx ry rz
    limits (-160.0 20.0)
           (-70.0 70.0)
           (-70.0 60.0)
  end
  begin
     id 8 
     name rtibia
     direction -0.34202 -0.939693 0   
     length 9.16127   
     axis 0 -0 -20   XYZ
    dof rx
    limits (-10.0 170.0)
 end
 begin
     id 9 
     name rfoot
     direction -0.270974 -0.748671 0.605033   
     length 1.74894  
     axis -90 1.13533e-015 -20   XYZ
    dof rx rz
    limits (-45.0 90.0)
           (-20.0 70.0)
  end
  begin
     id 10 
     name rtoes
     direction -1.53557e-011 -4.21759e-011 1   
     length 0.787585   
     axis -90 1.13533e-015 -20   XYZ
    dof rx
    limits (-90.0 20.0)
  end
  begin
     id 11 
     name lowerback
     direction -0.0140249 0.999561 0.0260968   
     length 2.16963   
     axis 0 -0 0   XYZ
    dof rx ry rz
    limits (-20.0 45.0)
           (-30.0 30.0)
           (-30.0 30.0)
  end
  begin
     id 12 
     name upperback
     direction 0.00860018 0.999959 -0.002711   
     length 2.1726   
     axis 0 -0 0   XYZ
    dof rx ry rz
    limits (-20.0 45.0)
           (-30.0 30.0)
           (-30.0 30.0)
  end
  begin
     id 13 
     name thorax
     direction 0.015211 0.999782 -0.0143191   
     length 2.17061   
     axis 0 -0 0   XYZ
    dof rx ry rz
    limits (-20.0 45.0)
           (-30.0 30.0)
           (-30.0 30.0)
  end
  begin
     id 14 
     name lowerneck
     direction -0.0140143 0.999447 0.030145   
     length 2.26749   
     axis 0 -0 0   XYZ
    dof rx ry rz
    limits (-20.0 45.0)
           (-30.0 30.0)
           (-30.0 30.0)
  end
  begin
     id 15 
     name upperneck
     direction 0.118062 0.961438 -0.248392   
     length 2.22728   
     axis 0 -0 0   XYZ
    dof rx ry rz
    limits (-20.0 45.0)
           (-30.0 30.0)
           (-30.0 30.0)
  end
  begin
     id 16
     name head
     direction 0.0431885 0.9954 -0.085514  
     length 2.28786  
     axis 0 -0 0   XYZ
    dof rx ry rz
    limits (-20.0 45.0)
           (-30.0 30.0)
           (-30.0 30.0)
  end
  begin
     id 17 
     name lclavicle
     direction 0.912126 0.409548 0.0172323  
     length 4.31571  
     axis 0 -0 0   XYZ
    dof ry rz
    limits (-20.0 10.0)
           (0.0 20.0)
  end
  begin
     id 18 
     name lhumerus
     direction 1 -4.48977e-011 1.93091e-027   
     length 5.13658   
     axis 180 -30 -90   XYZ
    dof rx ry rz
    limits (-60.0 90.0)
           (-90.0 90.0)
           (-90.0 90.0)
  end
  begin
     id 19
     name lradius
     direction 1 -4.48916e-011 6.84018e-027   
     length 3.22473   
     axis 180 -30 -90   XYZ
    dof rx
    limits (-10.0 170.0)
  end
  begin
     id 20
     name lwrist
     direction 1 -4.48987e-011 7.01981e-027   
     length 1.61236   
     axis -4.37994e-015 90 90   XYZ
    dof ry
    limits (-180.0 0.0)
 end
  begin
     id 21 
     name lhand
     direction 1 -4.49037e-011 1.40335e-026   
     length 0.936406   
     axis -8.96029e-015 90 90   XYZ
    dof rx rz
    limits (-90.0 90.0)
           (-45.0 45.0)
  end
  begin
     id 22 
     name lfingers
     direction 1 -4.48886e-011 2.8104e-026   
     length 0.754955   
     axis -1.79203e-014 90 90   XYZ
    dof rx
    limits (0.0 90.0)
  end
  begin
     id 23
     name lthumb
     direction 0.707107 -6.34937e-011 0.707107   
     length 1.08397   
     axis -90 45 -4.48555e-014   XYZ
    dof rx rz
    limits (-45.0 45.0)
           (-45.0 45.0)
  end
  begin
     id 24 
     name rclavicle
     direction -0.947962 0.317997 0.0156638   
     length 4.86918  
     axis 0 -0 0   XYZ 
    dof ry rz
    limits (-10.0 20.0)
           (-20.0 0.0)
  end
  begin
     id 25 
     name rhumerus
     direction -1 -4.48951e-011 2.80534e-018  
     length 5.60911   
     axis 180 30 90   XYZ
    dof rx ry rz
    limits (-90.0 60.0)
           (-90.0 90.0)
           (-90.0 90.0)
  end
  begin
     id 26 
     name rradius
     direction -1 -4.4898e-011 2.11315e-027   
     length 3.38704   
     axis 180 30 90   XYZ
    dof rx
    limits (-10.0 170.0)
  end
  begin
     id 27 
     name rwrist
     direction -1 -4.48933e-011 7.02314e-027   
     length 1.69352   
     axis -4.37994e-015 -90 -90   XYZ
    dof ry
    limits (-180.0 0.0)
  end
  begin
     id 28
     name rhand
     direction -1 -4.48937e-011 1.40458e-026   
     length 0.755878   
     axis -8.96029e-015 -90 -90   XYZ
    dof rx rz
    limits (-90.0 90.0)
           (-45.0 45.0)
  end
  begin
     id 29
     name rfingers
     direction -1 -4.4901e-011 2.80737e-026   
     length 0.609409   
     axis -1.79203e-014 -90 -90   XYZ
    dof rx
    limits (0.0 90.0)
  end
  begin
     id 30
     name rthumb
     direction -0.707107 -6.34968e-011 0.707107   
     length 0.874992   
     axis -90 -45 4.48555e-014   XYZ
    dof rx rz
    limits (-45.0 45.0)
           (-45.0 45.0)
  end
:hierarchy
  begin
    root lhipjoint rhipjoint lowerback
    lhipjoint lfemur
    lfemur ltibia
    ltibia lfoot
    lfoot ltoes
    rhipjoint rfemur
    rfemur rtibia
    rtibia rfoot
    rfoot rtoes
    lowerback upperback
    upperback thorax
    thorax lowerneck lclavicle rclavicle
    lowerneck upperneck
    upperneck head
    lclavicle lhumerus
    lhumerus lradius
    lradius lwrist
    lwrist lhand lthumb
    lhand lfingers
    rclavicle rhumerus
    rhumerus rradius
    rradius rwrist
    rwrist rhand rthumb
    rhand rfingers
  end

#!OML:ASF C:\ViconDB\ViconDB\414\Spring2016\041811\Spring2016.ASF
:FULLY-SPECIFIED
:DEGREES
47
root 7.99064 18.3264 2.52223 -176.797 -2.67337 179.367
lowerback 1.16714 0.744648 -3.63341
upperback 1.84908 0.934756 -0.0455467
thorax 1.18498 0.400942 1.98722
lowerneck -15.9722 2.08414 -5.08813
upperneck 22.3311 0.951469 10.2684
head 9.58644 0.877186 4.53179
rclavicle 1.99033e-014 -1.66979e-014
rhumerus -37.8184 -14.445 -87.5389
rradius 39.0669
rwrist 34.8648
rhand -35.2617 -14.437
rfingers 7.12502
rthumb -8.39731 -44.2501
lclavicle 1.99033e-014 -1.66979e-014
lhumerus -34.203 -3.73075 89.5083
lradius 29.2607
lwrist -27.3396
lhand -30.0898 16.4982
lfingers 7.12502
lthumb -3.40421 46.4508
rfemur 2.0335 -11.0816 17.8914
rtibia 10.2028
rfoot -15.7417 -4.86141
rtoes -12.9897
lfemur -7.8104 -10.0962 -15.3156
ltibia 21.8258
lfoot -20.1597 6.59789
ltoes -9.12653
48
root 7.99364 18.332 2.55286 -176.641 -2.64076 179.38
lowerback 1.78088 0.830551 -3.54851
upperback 1.7795 1.01921 -0.127246
thorax 0.766913 0.451389 1.84597
lowerneck -15.7554 2.08883 -4.93565
upperneck 22.1397 0.90941 10.3142
head 9.48393 0.869645 4.50379
rclavicle 4.27387e-015 8.74653e-015
rhumerus -38.1683 -14.3947 -87.407
rradius 39.4771
rwrist 34.8319
rhand -35.1465 -14.6147
rfingers 7.12502
rthumb -8.28618 -44.4322
lclavicle 4.27387e-015 8.74653e-015
lhumerus -34.427 -3.87151 89.4012
lradius 29.3247
lwrist -27.4213
lhand -30.4218 16.705
lfingers 7.12502
lthumb -3.72476 46.6522
rfemur 1.63175 -11.0795 17.9726
rtibia 10.3816
rfoot -15.8008 -4.84038
rtoes -13.0438
lfemur -8.20236 -9.78517 -15.2136
ltibia 21.9302
lfoot -19.995 6.35083
ltoes -9.05585
49
root 7.99627 18.3378 2.58257 -176.484 -2.65634 179.416
lowerback 2.313 0.830226 -3.46962
upperback 1.85061 0.991189 -0.146504
thorax 0.544904 0.437732 1.77547
lowerneck -15.7747 2.14277 -4.92107
upperneck 21.84 1.05021 10.2575
head 9.37143 0.942462 4.4881
rclavicle 3.77691e-015 -5.1684e-015
rhumerus -38.1237 -14.0918 -87.3324
rradius 39.7217
rwrist 34.5471
rhand -34.9522 -14.5602
rfingers 7.12502
rthumb -8.09865 -44.3851
lclavicle 3.77691e-015 -5.1684e-015
lhumerus -34.3714 -4.01053 89.3066
lradius 29.3349
lwrist -26.9271
lhand -30.7648 16.6623
lfingers 7.12502
lthumb -4.05599 46.6035
rfemur 1.2204 -11.0613 18.0748
rtibia 10.5724
rfoot -15.8045 -4.79849
rtoes -13.065
lfemur -8.59747 -9.56334 -15.095
ltibia 22.0504
lfoot -19.8429 6.14484
ltoes -9.05626
50
root 7.99647 18.3437 2.61447 -176.288 -2.59227 179.443
lowerback 2.80103 0.859274 -3.37168
upperback 1.93882 1.00462 -0.171377
thorax 0.363396 0.443515 1.68862
lowerneck -15.8377 2.21856 -4.8166
upperneck 21.6239 1.19408 10.165
head 9.29802 1.01916 4.44878
rclavicle 2.20899e-014 -7.55382e-015
rhumerus -38.1 -13.9116 -87.2707
rradius 39.9758
rwrist 34.46
rhand -34.8208 -14.5114
rfingers 7.12502
rthumb -7.97183 -44.3411
lclavicle 2.20899e-014 -7.55382e-015
lhumerus -34.2942 -3.90303 89.1883
lradius 29.2775
lwrist -27.0604
lhand -31.2025 17.0064
lfingers 7.12502
lthumb -4.47869 46.939
rfemur 0.739289 -11.0659 18.1583
rtibia 10.8097
rfoot -15.8694 -4.85803
rtoes -13.0935
lfemur -9.04328 -9.32109 -15.0066
ltibia 22.1768
lfoot -19.6825 6.04793
ltoes -9.21518
51
root 7.99982 18.3483 2.64881 -176.087 -2.64413 179.52
lowerback 3.3433 0.858041 -3.2466
upperback 2.03671 0.976223 -0.169679
thorax 0.16392 0.427988 1.61442
lowerneck -15.9444 2.29171 -4.70694
upperneck 21.3357 1.35055 10.0583
head 9.20768 1.10457 4.404
rclavicle -6.28657e-015 9.93923e-016
rhumerus -38.0909 -13.6544 -87.1988
rradius 40.3417
rwrist 34.2416
rhand -34.6434 -14.6291
rfingers 7.12502
rthumb -7.8006 -44.4653
lclavicle -6.28657e-015 9.93923e-016
lhumerus -34.1759 -3.99476 89.0516
lradius 29.1823
lwrist -27.0466
lhand -31.5191 17.1237
lfingers 7.12502
lthumb -4.78435 47.0496
rfemur 0.246847 -11.0058 18.3282
rtibia 11.0598
rfoot -15.803 -4.78376
rtoes -13.0618
lfemur -9.51755 -9.1249 -14.833
ltibia 22.312
lfoot -19.5203 5.83427
ltoes -9.19106
